<?xml version="1.0" encoding="utf-8"?>
<!-- Generator: Adobe Illustrator 23.0.2, SVG Export Plug-In . SVG Version: 6.00 Build 0)  -->
<svg version="1.1" id="Capa_1" xmlns="http://www.w3.org/2000/svg" xmlns:xlink="http://www.w3.org/1999/xlink" x="0px" y="0px"
	 viewBox="0 0 258 157" style="enable-background:new 0 0 258 157;" xml:space="preserve">
<style type="text/css">
	.st0{fill-rule:evenodd;clip-rule:evenodd;fill:#FD3F01;}
	.st1{fill:#FFFFFF;}
	.st2{fill-rule:evenodd;clip-rule:evenodd;fill:#FFFFFF;stroke:#FD3F01;stroke-miterlimit:10;}
	.st3{fill:none;stroke:#FD3F01;stroke-miterlimit:10;}
	.st4{fill-rule:evenodd;clip-rule:evenodd;fill:#FFFFFF;}
</style>
<g>
	<path class="st0" d="M-14,28"/>
</g>
<g>
	<path class="st1" d="M107.3,106.4l-0.1,0.2h-3.9l0.1-0.2c0.4,0,0.6,0,0.8-0.1c0.2-0.1,0.4-0.2,0.5-0.3c0.2-0.2,0.3-0.6,0.5-1.2
		l1.6-5.7c0.2-0.5,0.2-0.8,0.2-1.1c0-0.1,0-0.2-0.1-0.3c-0.1-0.1-0.2-0.2-0.3-0.2c-0.1,0-0.4-0.1-0.7-0.1l0.1-0.2h3.6l-0.1,0.2
		c-0.3,0-0.5,0-0.6,0.1c-0.2,0.1-0.4,0.2-0.5,0.4s-0.2,0.6-0.4,1.1l-1.6,5.7c-0.2,0.5-0.2,0.9-0.2,1s0,0.2,0.1,0.3
		c0.1,0.1,0.2,0.2,0.3,0.2C106.6,106.3,106.9,106.4,107.3,106.4z"/>
	<path class="st1" d="M111.6,100.4l-0.9,3.2c0.9-1.3,1.5-2.1,2-2.5s0.9-0.6,1.3-0.6c0.2,0,0.4,0.1,0.6,0.2c0.2,0.2,0.2,0.3,0.2,0.6
		c0,0.3-0.1,0.6-0.2,1.1l-0.9,2.9c-0.1,0.3-0.2,0.6-0.2,0.6c0,0.1,0,0.1,0.1,0.2l0.1,0.1c0.1,0,0.1,0,0.2-0.1
		c0.2-0.2,0.5-0.5,0.8-0.9l0.2,0.1c-0.4,0.6-0.8,1-1.2,1.3c-0.3,0.2-0.5,0.3-0.7,0.3s-0.3-0.1-0.4-0.2s-0.2-0.2-0.2-0.4
		c0-0.2,0.1-0.6,0.2-1.1l0.8-2.8c0.1-0.3,0.2-0.6,0.2-0.8c0-0.1,0-0.2-0.1-0.2c-0.1-0.1-0.1-0.1-0.2-0.1s-0.3,0.1-0.5,0.2
		c-0.3,0.2-0.7,0.6-1.1,1s-0.8,1.1-1.2,1.8c-0.2,0.4-0.4,0.8-0.6,1.3l-0.3,1.1h-1l1.3-4.3c0.2-0.5,0.2-0.8,0.2-1
		c0-0.1,0-0.2-0.1-0.3c-0.1-0.1-0.2-0.1-0.3-0.1c-0.1,0-0.2,0-0.3,0h-0.3v-0.2L111.6,100.4z"/>
	<path class="st1" d="M123,100.8l-0.2,0.7h-1.1c0.1,0.2,0.1,0.5,0.1,0.7c0,0.6-0.2,1.2-0.8,1.6c-0.5,0.5-1.2,0.7-2.1,0.8
		c-0.5,0.2-0.9,0.3-1.1,0.5c-0.1,0.1-0.2,0.2-0.2,0.2c0,0.1,0,0.2,0.1,0.2c0.1,0.1,0.3,0.2,0.6,0.2l1.3,0.3c0.7,0.2,1.2,0.4,1.5,0.6
		c0.2,0.2,0.4,0.5,0.4,0.9s-0.2,0.7-0.4,1c-0.3,0.3-0.7,0.6-1.2,0.7s-1.1,0.3-1.8,0.3c-0.6,0-1.1-0.1-1.6-0.2s-0.8-0.3-1-0.6
		c-0.2-0.2-0.3-0.5-0.3-0.7s0.1-0.4,0.2-0.6s0.3-0.4,0.5-0.5c0.1-0.1,0.5-0.3,1.1-0.6c-0.2-0.2-0.3-0.3-0.3-0.6
		c0-0.2,0.1-0.4,0.3-0.6s0.6-0.4,1.2-0.7c-0.5-0.1-0.9-0.3-1.2-0.6c-0.3-0.3-0.5-0.7-0.5-1.1c0-0.6,0.3-1.2,0.9-1.7s1.3-0.8,2.3-0.8
		c0.3,0,0.6,0,0.9,0.1c0.2,0.1,0.4,0.2,0.6,0.3L123,100.8L123,100.8z M117.2,106.6c-0.4,0.2-0.6,0.4-0.9,0.6
		c-0.2,0.2-0.3,0.5-0.3,0.8s0.2,0.6,0.4,0.8c0.4,0.3,1,0.4,1.7,0.4s1.2-0.1,1.7-0.3c0.5-0.2,0.7-0.5,0.7-0.9c0-0.2-0.1-0.3-0.2-0.5
		c-0.2-0.2-0.5-0.3-1-0.4C119.1,107.1,118.4,106.9,117.2,106.6z M120.6,101.9c0-0.4-0.1-0.7-0.3-0.9c-0.2-0.2-0.5-0.3-0.8-0.3
		c-0.5,0-1,0.3-1.3,0.8s-0.5,1.1-0.5,1.6c0,0.4,0.1,0.6,0.3,0.9c0.2,0.2,0.5,0.3,0.8,0.3c0.2,0,0.5-0.1,0.7-0.2s0.4-0.3,0.6-0.6
		c0.2-0.2,0.3-0.5,0.4-0.9C120.5,102.3,120.6,102.1,120.6,101.9z"/>
	<path class="st1" d="M124.3,104c0,0.2-0.1,0.4-0.1,0.6c0,0.4,0.2,0.8,0.4,1c0.3,0.3,0.6,0.4,1.1,0.4c0.3,0,0.6-0.1,1-0.2
		c0.3-0.1,0.8-0.4,1.4-0.9l0.2,0.2c-1.1,1.1-2.1,1.6-3.1,1.6c-0.7,0-1.2-0.2-1.5-0.6s-0.5-0.9-0.5-1.4c0-0.7,0.2-1.4,0.6-2.1
		s1-1.3,1.6-1.7c0.6-0.4,1.3-0.6,2-0.6c0.5,0,0.9,0.1,1.1,0.3c0.2,0.2,0.4,0.4,0.4,0.7c0,0.4-0.2,0.7-0.5,1.1
		c-0.4,0.5-1,0.8-1.8,1.1C126,103.8,125.3,103.9,124.3,104z M124.4,103.7c0.7-0.1,1.2-0.2,1.7-0.4c0.6-0.2,1-0.6,1.3-0.9
		c0.3-0.4,0.4-0.7,0.4-1c0-0.2-0.1-0.3-0.2-0.5c-0.1-0.1-0.3-0.2-0.5-0.2c-0.5,0-1,0.2-1.5,0.8C125,102,124.7,102.7,124.4,103.7z"/>
	<path class="st1" d="M132.1,100.4l-0.9,3.2c0.9-1.3,1.5-2.1,2-2.5s0.9-0.6,1.3-0.6c0.2,0,0.4,0.1,0.6,0.2c0.2,0.2,0.2,0.3,0.2,0.6
		c0,0.3-0.1,0.6-0.2,1.1l-0.9,2.9c-0.1,0.3-0.2,0.6-0.2,0.6c0,0.1,0,0.1,0.1,0.2l0.1,0.1c0.1,0,0.1,0,0.2-0.1
		c0.2-0.2,0.5-0.5,0.8-0.9l0.2,0.1c-0.4,0.6-0.8,1-1.2,1.3c-0.3,0.2-0.5,0.3-0.7,0.3s-0.3-0.1-0.4-0.2s-0.2-0.2-0.2-0.4
		c0-0.2,0.1-0.6,0.2-1.1l0.8-2.8c0.1-0.3,0.2-0.6,0.2-0.8c0-0.1,0-0.2-0.1-0.2c-0.1-0.1-0.1-0.1-0.2-0.1c-0.1,0-0.3,0.1-0.5,0.2
		c-0.3,0.2-0.7,0.6-1.1,1s-0.8,1.1-1.2,1.8c-0.2,0.4-0.4,0.8-0.6,1.3l-0.3,1.1h-1l1.3-4.3c0.2-0.5,0.2-0.8,0.2-1
		c0-0.1,0-0.2-0.1-0.3c-0.1-0.1-0.2-0.1-0.3-0.1s-0.2,0-0.3,0h-0.3v-0.2L132.1,100.4z"/>
	<path class="st1" d="M139.3,100.4l-1.4,4.8c-0.1,0.3-0.2,0.5-0.2,0.6s0,0.1,0.1,0.2c0,0.1,0.1,0.1,0.2,0.1c0.1,0,0.2,0,0.2-0.1
		c0.3-0.2,0.5-0.5,0.8-0.9l0.2,0.2c-0.3,0.5-0.7,0.9-1.1,1.2c-0.3,0.2-0.6,0.4-0.9,0.4c-0.2,0-0.3-0.1-0.5-0.2
		c-0.1-0.1-0.2-0.2-0.2-0.4s0.1-0.5,0.2-0.9l0.9-3.1c0.2-0.5,0.2-0.8,0.2-1c0-0.1,0-0.2-0.1-0.2c-0.1-0.1-0.2-0.1-0.3-0.1
		s-0.3,0-0.6,0.1v-0.3L139.3,100.4z M139.2,97.6c0.2,0,0.4,0.1,0.5,0.2c0.1,0.2,0.2,0.3,0.2,0.5s-0.1,0.3-0.2,0.5
		c-0.1,0.1-0.3,0.2-0.5,0.2s-0.3-0.1-0.5-0.2c-0.2-0.2-0.2-0.3-0.2-0.5s0.1-0.4,0.2-0.5C138.8,97.7,139,97.6,139.2,97.6z"/>
	<path class="st1" d="M141.7,104c0,0.2-0.1,0.4-0.1,0.6c0,0.4,0.2,0.8,0.4,1c0.3,0.3,0.6,0.4,1.1,0.4c0.3,0,0.6-0.1,1-0.2
		c0.3-0.1,0.8-0.4,1.4-0.9l0.2,0.2c-1.1,1.1-2.1,1.6-3.1,1.6c-0.7,0-1.2-0.2-1.5-0.6s-0.5-0.9-0.5-1.4c0-0.7,0.2-1.4,0.6-2.1
		s1-1.3,1.6-1.7c0.6-0.4,1.3-0.6,2-0.6c0.5,0,0.9,0.1,1.1,0.3c0.2,0.2,0.4,0.4,0.4,0.7c0,0.4-0.2,0.7-0.5,1.1
		c-0.4,0.5-1,0.8-1.8,1.1C143.3,103.8,142.6,103.9,141.7,104z M141.7,103.7c0.7-0.1,1.2-0.2,1.7-0.4c0.6-0.2,1-0.6,1.3-0.9
		c0.3-0.4,0.4-0.7,0.4-1c0-0.2-0.1-0.3-0.2-0.5c-0.1-0.1-0.3-0.2-0.5-0.2c-0.5,0-1,0.2-1.5,0.8C142.4,102,142,102.7,141.7,103.7z"/>
	<path class="st1" d="M147,100.7l2.4-0.4l-1,3.4c0.8-1.4,1.5-2.3,2.2-2.9c0.4-0.3,0.7-0.5,0.9-0.5s0.3,0,0.4,0.1
		c0.1,0.1,0.1,0.2,0.1,0.4c0,0.3-0.1,0.6-0.2,0.9c-0.1,0.2-0.3,0.3-0.5,0.3c-0.1,0-0.2,0-0.3-0.1s-0.1-0.2-0.2-0.3
		c0-0.1,0-0.2-0.1-0.2l-0.1-0.1c-0.1,0-0.2,0-0.2,0.1c-0.1,0.1-0.3,0.2-0.6,0.6c-0.4,0.5-0.8,1-1.3,1.7c-0.2,0.3-0.4,0.6-0.5,1
		c-0.2,0.5-0.3,0.8-0.3,1l-0.2,0.9h-1.1l1.3-4.3c0.2-0.5,0.2-0.9,0.2-1.1c0-0.1,0-0.2-0.1-0.2c-0.1-0.1-0.2-0.1-0.4-0.1
		c-0.1,0-0.3,0-0.5,0.1L147,100.7z"/>
	<path class="st1" d="M155.1,100.4l-1.4,4.8c-0.1,0.3-0.2,0.5-0.2,0.6s0,0.1,0.1,0.2s0.1,0.1,0.2,0.1c0.1,0,0.2,0,0.2-0.1
		c0.3-0.2,0.5-0.5,0.8-0.9l0.2,0.2c-0.3,0.5-0.7,0.9-1.1,1.2c-0.3,0.2-0.6,0.4-0.9,0.4c-0.2,0-0.3-0.1-0.5-0.2
		c-0.1-0.1-0.2-0.2-0.2-0.4s0.1-0.5,0.2-0.9l0.9-3.1c0.2-0.5,0.2-0.8,0.2-1c0-0.1,0-0.2-0.1-0.2c-0.1-0.1-0.2-0.1-0.3-0.1
		s-0.3,0-0.6,0.1v-0.3L155.1,100.4z M155,97.6c0.2,0,0.4,0.1,0.5,0.2c0.1,0.2,0.2,0.3,0.2,0.5s-0.1,0.3-0.2,0.5
		c-0.1,0.1-0.3,0.2-0.5,0.2s-0.3-0.1-0.5-0.2c-0.2-0.2-0.2-0.3-0.2-0.5s0.1-0.4,0.2-0.5C154.6,97.7,154.8,97.6,155,97.6z"/>
	<path class="st1" d="M162.4,100.4l-1.3,4.7l-0.2,0.6c0,0.1,0,0.1,0,0.2s0,0.2,0.1,0.2c0,0,0.1,0.1,0.2,0.1c0.1,0,0.2,0,0.2-0.1
		c0.2-0.1,0.4-0.4,0.7-0.8l0.2,0.2c-0.3,0.5-0.6,0.9-1,1.1c-0.3,0.2-0.6,0.4-0.9,0.4c-0.2,0-0.3-0.1-0.5-0.2
		c-0.1-0.1-0.2-0.2-0.2-0.4c0-0.2,0.1-0.5,0.2-0.9l0.2-0.5c-0.6,0.8-1.2,1.3-1.7,1.7c-0.4,0.2-0.7,0.3-1.1,0.3
		c-0.3,0-0.6-0.2-0.9-0.4c-0.2-0.3-0.4-0.7-0.4-1.2c0-0.7,0.2-1.5,0.7-2.3s1-1.5,1.7-2c0.5-0.4,1-0.6,1.5-0.6c0.3,0,0.5,0.1,0.7,0.2
		c0.2,0.2,0.3,0.4,0.4,0.7l0.2-0.8L162.4,100.4z M159.9,100.7c-0.3,0-0.6,0.2-1,0.4c-0.5,0.4-0.9,1-1.3,1.7
		c-0.4,0.8-0.6,1.5-0.6,2.1c0,0.3,0.1,0.6,0.2,0.7c0.2,0.2,0.3,0.3,0.6,0.3c0.5,0,1-0.4,1.7-1.1c0.8-1,1.2-2,1.2-3
		c0-0.4-0.1-0.7-0.2-0.9C160.4,100.8,160.2,100.7,159.9,100.7z"/>
	<path class="st1" d="M168.6,100.4c0.2,0.3,0.3,0.5,0.3,0.8c0.1,0.2,0.1,0.7,0.2,1.4l0.3,3.4c0.3-0.3,0.7-0.9,1.2-1.6
		c0.2-0.3,0.6-0.8,1-1.4c0.2-0.4,0.4-0.6,0.4-0.8c0-0.1,0-0.2,0-0.2s0-0.1-0.1-0.1c0,0-0.1-0.1-0.2-0.1c-0.1,0-0.2-0.1-0.3-0.2
		s-0.1-0.2-0.1-0.4c0-0.2,0.1-0.3,0.2-0.5c0.1-0.1,0.2-0.2,0.4-0.2s0.4,0.1,0.5,0.2c0.2,0.2,0.2,0.4,0.2,0.7c0,0.4-0.1,0.8-0.4,1.3
		c-0.2,0.5-0.7,1.2-1.4,2.1c-0.7,1-1.6,2-2.6,3.2c-0.7,0.8-1.2,1.3-1.6,1.5s-0.6,0.3-0.9,0.3c-0.2,0-0.3-0.1-0.4-0.2
		c-0.1-0.1-0.2-0.2-0.2-0.4c0-0.2,0.1-0.3,0.2-0.5c0.2-0.2,0.3-0.2,0.5-0.2c0.1,0,0.2,0,0.2,0.1c0,0,0.1,0.1,0.1,0.2
		s0.1,0.2,0.1,0.2h0.1c0,0,0.1,0,0.2-0.1c0.2-0.2,0.6-0.4,0.9-0.7c0.4-0.5,0.8-0.8,1-1.1l-0.4-4.4c-0.1-0.7-0.2-1.2-0.3-1.3
		c-0.1-0.2-0.3-0.2-0.6-0.2c-0.1,0-0.3,0-0.5,0l-0.1-0.2L168.6,100.4z"/>
	<path class="st1" d="M186.2,97l-0.7,3h-0.2v-0.8c0-0.3-0.1-0.5-0.2-0.7c-0.1-0.2-0.2-0.4-0.4-0.6s-0.4-0.3-0.6-0.4
		c-0.2-0.1-0.5-0.1-0.9-0.1c-0.8,0-1.6,0.2-2.2,0.7c-0.8,0.6-1.4,1.4-1.9,2.5c-0.4,0.9-0.6,1.7-0.6,2.6s0.3,1.6,0.8,2.2
		s1.2,0.8,2.1,0.8c0.6,0,1.2-0.2,1.7-0.4c0.5-0.3,1-0.7,1.4-1.3h0.3c-0.5,0.8-1.1,1.4-1.7,1.8c-0.6,0.4-1.3,0.6-2.2,0.6
		c-0.8,0-1.4-0.2-2-0.5s-1-0.8-1.3-1.3c-0.3-0.6-0.5-1.2-0.5-1.9c0-1,0.3-2,0.8-3c0.6-1,1.3-1.7,2.3-2.3c1-0.6,1.9-0.8,2.9-0.8
		c0.5,0,1,0.1,1.5,0.3c0.2,0.1,0.4,0.2,0.6,0.2s0.2,0,0.3-0.1s0.2-0.2,0.4-0.4L186.2,97L186.2,97z"/>
	<path class="st1" d="M192.2,102.6c0,0.7-0.2,1.4-0.6,2.1c-0.4,0.7-0.9,1.2-1.5,1.6s-1.3,0.6-1.9,0.6c-0.6,0-1.1-0.2-1.5-0.6
		s-0.6-0.9-0.6-1.6s0.2-1.3,0.6-2.1c0.4-0.7,0.9-1.2,1.6-1.6s1.3-0.6,1.9-0.6s1.1,0.2,1.5,0.6C192,101.4,192.2,101.9,192.2,102.6z
		 M191,102.1c0-0.4-0.1-0.8-0.3-1s-0.5-0.3-0.8-0.3c-0.7,0-1.3,0.5-1.9,1.5c-0.6,1-0.9,1.9-0.9,2.9c0,0.4,0.1,0.8,0.3,1
		s0.5,0.4,0.8,0.4c0.6,0,1.3-0.5,1.8-1.4C190.8,104,191,103,191,102.1z"/>
	<path class="st1" d="M195.8,100.4l-0.9,3.2c0.9-1.3,1.5-2.1,2-2.5s0.9-0.6,1.3-0.6c0.2,0,0.4,0.1,0.6,0.2c0.2,0.2,0.2,0.3,0.2,0.6
		c0,0.3-0.1,0.6-0.2,1.1l-0.9,2.9c-0.1,0.3-0.2,0.6-0.2,0.6c0,0.1,0,0.1,0.1,0.2l0.1,0.1c0.1,0,0.1,0,0.2-0.1
		c0.2-0.2,0.5-0.5,0.8-0.9l0.2,0.1c-0.4,0.6-0.8,1-1.2,1.3c-0.3,0.2-0.5,0.3-0.7,0.3s-0.3-0.1-0.4-0.2s-0.2-0.2-0.2-0.4
		c0-0.2,0.1-0.6,0.2-1.1l0.8-2.8c0.1-0.3,0.2-0.6,0.2-0.8c0-0.1,0-0.2-0.1-0.2c-0.1-0.1-0.1-0.1-0.2-0.1c-0.1,0-0.3,0.1-0.5,0.2
		c-0.3,0.2-0.7,0.6-1.1,1s-0.8,1.1-1.2,1.8c-0.2,0.4-0.4,0.8-0.6,1.3l-0.3,1.1h-1l1.3-4.3c0.2-0.5,0.2-0.8,0.2-1
		c0-0.1,0-0.2-0.1-0.3c-0.1-0.1-0.2-0.1-0.3-0.1s-0.2,0-0.3,0h-0.3v-0.2L195.8,100.4z"/>
	<path class="st1" d="M205,100.4l-0.4,2.1h-0.2c0-0.6-0.2-1.1-0.4-1.3s-0.6-0.4-0.9-0.4c-0.3,0-0.5,0.1-0.7,0.2
		c-0.2,0.2-0.2,0.3-0.2,0.6c0,0.2,0,0.3,0.1,0.4c0.1,0.2,0.2,0.3,0.4,0.6c0.6,0.6,1,1.1,1.2,1.5c0.2,0.3,0.3,0.6,0.3,1
		c0,0.5-0.2,0.9-0.6,1.3c-0.4,0.4-0.9,0.6-1.5,0.6c-0.3,0-0.7-0.1-1.1-0.2c-0.2-0.1-0.3-0.1-0.4-0.1c-0.2,0-0.4,0.1-0.5,0.3h-0.2
		l0.4-2.2h0.2c0,0.7,0.2,1.2,0.4,1.5c0.3,0.3,0.6,0.4,1.1,0.4c0.3,0,0.6-0.1,0.8-0.3c0.2-0.2,0.3-0.4,0.3-0.7c0-0.2,0-0.4-0.1-0.5
		c-0.1-0.3-0.4-0.7-0.8-1.1c-0.4-0.5-0.7-0.9-0.8-1.1s-0.2-0.5-0.2-0.7c0-0.5,0.2-0.8,0.5-1.1s0.7-0.5,1.3-0.5c0.2,0,0.3,0,0.4,0
		c0.1,0,0.2,0.1,0.5,0.2s0.4,0.1,0.5,0.1c0.2,0,0.4-0.1,0.5-0.3L205,100.4L205,100.4z"/>
	<path class="st1" d="M209,98.7l-0.6,1.9h1.1l-0.1,0.4h-1.1l-1.2,4.1c-0.1,0.4-0.2,0.7-0.2,0.9c0,0.1,0,0.2,0.1,0.2l0.1,0.1
		c0.1,0,0.3-0.1,0.5-0.2c0.1-0.1,0.4-0.4,0.7-0.9l0.2,0.2c-0.4,0.6-0.8,1-1.2,1.3c-0.2,0.2-0.5,0.3-0.8,0.3c-0.2,0-0.4-0.1-0.5-0.2
		s-0.2-0.3-0.2-0.5s0.1-0.6,0.2-1.1l1.2-4h-1l0.1-0.3c0.5-0.2,0.9-0.3,1.3-0.6c0.3-0.3,0.7-0.8,1.1-1.4h0.3L209,98.7L209,98.7z"/>
	<path class="st1" d="M210,100.7l2.4-0.4l-1,3.4c0.8-1.4,1.5-2.3,2.2-2.9c0.4-0.3,0.7-0.5,0.9-0.5s0.3,0,0.4,0.1
		c0.1,0.1,0.1,0.2,0.1,0.4c0,0.3-0.1,0.6-0.2,0.9c-0.1,0.2-0.3,0.3-0.5,0.3c-0.1,0-0.2,0-0.3-0.1s-0.1-0.2-0.2-0.3
		c0-0.1,0-0.2-0.1-0.2l-0.1-0.1c-0.1,0-0.2,0-0.2,0.1c-0.1,0.1-0.3,0.2-0.6,0.6c-0.4,0.5-0.8,1-1.3,1.7c-0.2,0.3-0.4,0.6-0.5,1
		c-0.2,0.5-0.3,0.8-0.3,1l-0.2,0.9h-1l1.3-4.3c0.2-0.5,0.2-0.9,0.2-1.1c0-0.1,0-0.2-0.1-0.2c-0.1-0.1-0.2-0.1-0.4-0.1
		c-0.1,0-0.3,0-0.5,0.1L210,100.7z"/>
	<path class="st1" d="M221.5,100.5l-1.2,4.1c-0.2,0.6-0.3,1-0.3,1.2c0,0.1,0,0.2,0,0.2l0.1,0.1c0.1,0,0.2,0,0.2-0.1
		c0.1-0.1,0.3-0.4,0.7-0.9l0.2,0.2c-0.4,0.6-0.7,1-1.1,1.3c-0.2,0.2-0.5,0.3-0.7,0.3s-0.3-0.1-0.4-0.2s-0.2-0.2-0.2-0.4
		c0-0.2,0-0.4,0.1-0.6c0.1-0.3,0.3-1.1,0.6-2.2c-0.8,1.3-1.4,2.2-2,2.7c-0.5,0.5-1,0.7-1.5,0.7c-0.2,0-0.4-0.1-0.6-0.2
		c-0.2-0.2-0.2-0.3-0.2-0.6c0-0.3,0.1-0.9,0.3-1.6l0.6-2.1c0.2-0.5,0.2-0.8,0.2-1c0-0.1,0-0.1-0.1-0.2l-0.1-0.1
		c-0.1,0-0.2,0-0.3,0.1s-0.3,0.3-0.6,0.8l-0.2-0.2c0.3-0.5,0.7-0.9,1.1-1.2c0.3-0.2,0.6-0.3,0.8-0.3s0.3,0.1,0.4,0.2
		c0.1,0.1,0.2,0.2,0.2,0.4c0,0.2-0.1,0.7-0.3,1.3l-0.6,2.2c-0.2,0.6-0.3,1-0.3,1.2c0,0.1,0,0.2,0.1,0.2c0.1,0.1,0.1,0.1,0.2,0.1
		c0.2,0,0.3-0.1,0.6-0.2c0.2-0.2,0.6-0.5,1-1s0.7-1,1-1.5s0.6-1.2,0.9-2.2l0.2-0.5L221.5,100.5L221.5,100.5z"/>
	<path class="st1" d="M227.4,105.1c-0.5,0.6-1,1-1.4,1.3c-0.5,0.2-1,0.4-1.6,0.4s-1.2-0.2-1.5-0.6c-0.4-0.4-0.6-0.9-0.6-1.5
		c0-0.7,0.2-1.4,0.6-2.1c0.4-0.7,0.9-1.2,1.6-1.7c0.7-0.4,1.3-0.6,2-0.6c0.5,0,0.9,0.1,1.1,0.3s0.4,0.5,0.4,0.8s-0.1,0.5-0.3,0.7
		c-0.1,0.2-0.3,0.2-0.5,0.2s-0.3-0.1-0.4-0.2s-0.2-0.2-0.2-0.3c0-0.1,0-0.2,0.1-0.2c0-0.1,0.1-0.2,0.2-0.3c0.1-0.1,0.2-0.2,0.2-0.2
		s0-0.1,0-0.2s0-0.2-0.1-0.2c-0.1-0.1-0.3-0.2-0.6-0.2c-0.5,0-0.9,0.2-1.3,0.5c-0.4,0.3-0.8,0.8-1.1,1.3c-0.4,0.7-0.6,1.4-0.6,2.1
		c0,0.5,0.1,0.9,0.4,1.1c0.3,0.2,0.6,0.4,1.1,0.4c0.4,0,0.7-0.1,1-0.3c0.3-0.2,0.7-0.5,1.2-1L227.4,105.1z"/>
	<path class="st1" d="M233.6,105.1c-0.5,0.6-1,1-1.4,1.3c-0.5,0.2-1,0.4-1.6,0.4s-1.2-0.2-1.5-0.6c-0.4-0.4-0.6-0.9-0.6-1.5
		c0-0.7,0.2-1.4,0.6-2.1c0.4-0.7,0.9-1.2,1.6-1.7s1.3-0.6,2-0.6c0.5,0,0.9,0.1,1.1,0.3s0.4,0.5,0.4,0.8s-0.1,0.5-0.3,0.7
		c-0.1,0.2-0.3,0.2-0.5,0.2s-0.3-0.1-0.4-0.2s-0.2-0.2-0.2-0.3c0-0.1,0-0.2,0.1-0.2c0-0.1,0.1-0.2,0.2-0.3c0.1-0.1,0.2-0.2,0.2-0.2
		s0-0.1,0-0.2s0-0.2-0.1-0.2c-0.1-0.1-0.3-0.2-0.6-0.2c-0.5,0-0.9,0.2-1.3,0.5c-0.4,0.3-0.8,0.8-1.1,1.3c-0.4,0.7-0.6,1.4-0.6,2.1
		c0,0.5,0.1,0.9,0.4,1.1c0.3,0.2,0.6,0.4,1.1,0.4c0.4,0,0.7-0.1,1-0.3c0.3-0.2,0.7-0.5,1.2-1L233.6,105.1z"/>
	<path class="st1" d="M237.7,100.4l-1.4,4.8c-0.1,0.3-0.2,0.5-0.2,0.6s0,0.1,0.1,0.2c0,0.1,0.1,0.1,0.2,0.1c0.1,0,0.2,0,0.2-0.1
		c0.3-0.2,0.5-0.5,0.8-0.9l0.2,0.2c-0.3,0.5-0.7,0.9-1.1,1.2c-0.3,0.2-0.6,0.4-0.9,0.4c-0.2,0-0.3-0.1-0.5-0.2
		c-0.1-0.1-0.2-0.2-0.2-0.4s0.1-0.5,0.2-0.9l0.9-3.1c0.2-0.5,0.2-0.8,0.2-1c0-0.1,0-0.2-0.1-0.2c-0.1-0.1-0.2-0.1-0.3-0.1
		s-0.3,0-0.6,0.1v-0.3L237.7,100.4z M237.6,97.6c0.2,0,0.4,0.1,0.5,0.2c0.1,0.2,0.2,0.3,0.2,0.5s-0.1,0.3-0.2,0.5
		c-0.1,0.1-0.3,0.2-0.5,0.2s-0.3-0.1-0.5-0.2c-0.2-0.2-0.2-0.3-0.2-0.5s0.1-0.4,0.2-0.5C237.3,97.7,237.4,97.6,237.6,97.6z"/>
	<path class="st1" d="M245,102.6c0,0.7-0.2,1.4-0.6,2.1c-0.4,0.7-0.9,1.2-1.5,1.6s-1.3,0.6-1.9,0.6c-0.6,0-1.1-0.2-1.5-0.6
		s-0.6-0.9-0.6-1.6s0.2-1.3,0.6-2.1c0.4-0.7,0.9-1.2,1.6-1.6s1.3-0.6,1.9-0.6s1.1,0.2,1.5,0.6C244.8,101.4,245,101.9,245,102.6z
		 M243.8,102.1c0-0.4-0.1-0.8-0.3-1s-0.5-0.3-0.8-0.3c-0.7,0-1.3,0.5-1.9,1.5c-0.6,1-0.9,1.9-0.9,2.9c0,0.4,0.1,0.8,0.3,1
		s0.5,0.4,0.8,0.4c0.6,0,1.3-0.5,1.8-1.4C243.5,104,243.8,103,243.8,102.1z"/>
	<path class="st1" d="M248.6,100.4l-0.9,3.2c0.9-1.3,1.5-2.1,2-2.5s0.9-0.6,1.3-0.6c0.2,0,0.4,0.1,0.6,0.2c0.2,0.2,0.2,0.3,0.2,0.6
		c0,0.3-0.1,0.6-0.2,1.1l-0.9,2.9c-0.1,0.3-0.2,0.6-0.2,0.6c0,0.1,0,0.1,0.1,0.2l0.1,0.1c0,0,0.1,0,0.2-0.1c0.2-0.2,0.5-0.5,0.8-0.9
		l0.2,0.1c-0.4,0.6-0.8,1-1.2,1.3c-0.3,0.2-0.5,0.3-0.7,0.3s-0.3-0.1-0.4-0.2s-0.2-0.2-0.2-0.4c0-0.2,0.1-0.6,0.2-1.1l0.8-2.8
		c0.1-0.3,0.2-0.6,0.2-0.8c0-0.1,0-0.2-0.1-0.2c-0.1-0.1-0.1-0.1-0.2-0.1c-0.1,0-0.3,0.1-0.5,0.2c-0.3,0.2-0.7,0.6-1.1,1
		s-0.8,1.1-1.2,1.8c-0.2,0.4-0.4,0.8-0.6,1.3l-0.3,1.1h-1.1l1.3-4.3c0.2-0.5,0.2-0.8,0.2-1c0-0.1,0-0.2-0.1-0.3
		c-0.1-0.1-0.2-0.1-0.3-0.1s-0.2,0-0.3,0H246v-0.2L248.6,100.4z"/>
</g>
<g>
	<path class="st1" d="M142.3,68.9v1.9c-3.2,3.6-6.2,6.6-8.9,8.9c-2.7,2.4-5.4,4.2-8,5.4s-5.1,1.9-7.5,1.9c-2.1,0-3.9-0.4-5.4-1.3
		c-1.5-0.8-2.6-2.1-3.4-3.7s-1.1-3.5-1.1-5.7c0-1.7,0.3-3.5,0.8-5.5c0.5-1.9,1.3-3.9,2.4-5.8c1-2,2.3-4,3.8-6.1s3.3-4.3,5.3-6.6
		c2.1-2.4,4.2-4.5,6.3-6.2s3.9-3.1,5.6-4.1c1.7-1,3.2-1.7,4.7-2.2c1.4-0.5,2.6-0.7,3.6-0.7s1.8,0.3,2.5,0.7c0.7,0.5,1.2,1.1,1.6,2
		c0.4,0.9,0.5,1.9,0.5,3.1c0,2.2-0.8,4.6-2.2,7.3c-1.5,2.7-3.4,5.2-5.6,7.8c-2.2,2.5-4.3,4.5-6.4,6.1c-2,1.6-3.5,2.4-4.4,2.4
		c-0.6,0-1.2-0.3-1.7-0.7c-0.5-0.5-0.8-1-0.8-1.6c0-1.1,0.6-2.4,1.8-4c1.2-1.6,2.4-3,3.8-4.3s2.2-2,2.5-2c0.1,0,0.2,0,0.2,0.2
		s-0.1,0.5-0.3,0.9s-0.3,0.7-0.3,0.8c0,0.2,0,0.3,0.2,0.3c0.3,0,1.3-0.9,2.9-2.6c1.6-1.8,3-3.7,4.3-5.8s2-3.9,2-5.2
		c0-0.5-0.1-1-0.4-1.3c-0.3-0.3-0.6-0.5-1.1-0.5c-1.3,0-3.4,1.1-6.2,3.3s-5.6,5-8.5,8.4s-5.3,6.9-7.2,10.5c-1.9,3.6-2.9,6.8-2.9,9.5
		c0,1.6,0.3,2.9,0.7,4c0.5,1,1.2,1.9,2.1,2.5s2,0.9,3.3,0.9c2.8,0,6-1.1,9.5-3.3C134.2,76.4,138.1,73.1,142.3,68.9z"/>
	<path class="st1" d="M146.7,70v0.7c0,1.1,0.3,2,0.8,2.7c0.5,0.6,1.3,1,2.2,1c1,0,1.9-0.2,2.9-0.7s2-1,3-1.8c1-0.7,2.2-1.7,3.7-2.9
		v1.8c-2.2,2.6-4.2,4.7-6.1,6c-1.9,1.4-3.9,2.1-5.8,2.1c-1.7,0-3.1-0.7-4.1-2s-1.5-3.1-1.5-5.5c0-2,0.5-3.9,1.4-5.5
		c1-1.6,2.5-3.4,4.6-5.2c1.5-1.3,2.9-2.2,4.4-2.9s2.7-1,3.9-1c0.9,0,1.6,0.2,2.1,0.6c0.5,0.4,0.8,1,0.8,1.9c0,1.2-0.5,2.4-1.3,3.7
		c-0.9,1.2-2.3,2.4-4.2,3.6C151.7,67.8,149.4,68.9,146.7,70z M147,68.1c1.7-0.7,3.2-1.5,4.5-2.5c1.2-1,2.1-2,2.7-2.9
		c0.6-0.9,0.9-1.6,0.9-2c0-0.5-0.2-0.7-0.6-0.7c-0.3,0-0.9,0.2-1.7,0.7s-1.6,1-2.4,1.7c-0.8,0.7-1.5,1.6-2.1,2.5
		C147.6,66,147.2,67,147,68.1z"/>
	<path class="st1" d="M175.6,69v2c-1.2,1.2-2.1,2-2.6,2.5c-0.6,0.5-1.4,1-2.5,1.6c0,1.8-0.1,3.3-0.3,4.5s-0.5,2.5-1.2,3.9
		c-0.6,1.3-1.5,2.9-2.8,4.5c-1.2,1.6-2.4,2.9-3.7,3.7c-1.2,0.8-2.1,1.3-2.8,1.3c-0.8,0-1.5-0.6-2.1-1.8s-1-2.8-1-4.6
		c0-1.8,0.3-3.6,0.9-5.6c0.6-1.9,1.5-4.5,2.8-7.6c-1-1.2-1.4-2.5-1.4-3.7c0-1,0.3-1.7,0.8-2.3c0.5-0.5,1.2-1,2.1-1.4
		c0.7-1,1.3-2,1.9-2.7c0.6-0.8,1.4-1.7,2.5-3c2-5,4.4-9.8,7.1-14.5c0.8-1.3,1.3-2.2,1.6-2.6c0.3-0.5,0.7-0.7,1-0.7s0.6,0.3,0.9,0.7
		c0.3,0.5,0.4,1.1,0.4,1.9c0,1-0.1,1.8-0.3,2.6s-0.5,1.6-0.9,2.4c-0.4,0.8-0.9,1.8-1.6,2.9c-0.7,1.1-1.1,1.8-1.2,2.1
		c-1,1.7-2.1,3.6-3.3,5.7c-1.2,2.1-2.2,3.7-2.9,4.9s-1.2,2.1-1.5,2.7c1,0.9,1.9,1.7,2.5,2.4c0.6,0.7,1.1,1.4,1.6,2.4
		c0.7-0.3,1.3-0.5,1.8-0.9s1.2-0.8,1.9-1.4C174.1,70.1,174.8,69.5,175.6,69z M166.9,76.7v-0.6c-0.5,0-1,0.1-1.3,0
		c-0.3,0-0.7-0.1-1.1-0.3c-0.4-0.1-0.8-0.3-1-0.4c-0.3-0.1-0.5-0.3-0.8-0.3c-1.5,3.6-2.2,6.6-2.2,8.9c0,1.2,0.2,2.2,0.5,3
		c0.4,0.8,0.8,1.3,1.3,1.3s1.1-0.5,1.9-1.3c0.8-0.9,1.4-2.2,2-3.9C166.6,81.5,166.9,79.3,166.9,76.7z"/>
	<path class="st1" d="M194.1,68.9v1.9c-1.3,1.2-2.3,1.9-3.1,2.3s-1.9,0.5-3.3,0.5c-2.5,3-4.7,4.5-6.6,4.5c-1.1,0-2.1-0.4-2.9-1.1
		c-0.9-0.7-1.6-1.7-2.1-2.9c-0.5-1.2-0.8-2.6-0.8-4.2c0-1.2,0.4-2.6,1.2-4.1s1.9-2.9,3.2-4.2s2.7-2.4,4.2-3.1
		c1.5-0.8,2.9-1.2,4.2-1.2c0.9,0,1.6,0.1,2.1,0.4c0.5,0.3,0.8,0.7,0.8,1.2c0,0.4-0.2,0.8-0.7,1.3c0.7,0.2,1.2,0.4,1.5,0.8
		c0.3,0.4,0.4,1,0.4,2c0,0.9-0.2,2.1-0.7,3.5c-0.4,1.4-1,2.7-1.8,4l0.5,0.5h0.4c0.3,0,0.7-0.1,1-0.3c0.3-0.2,0.6-0.3,0.8-0.5
		C192.7,70,193.3,69.6,194.1,68.9z M188.2,61.3c-1.6,1-3,1.8-4.1,2.6s-2.1,1.6-2.9,2.4c-0.8,0.8-1.3,1.6-1.6,2.4
		c-0.5,2.2-0.7,3.3-0.7,3.5c0,1.3,0.9,1.9,2.7,1.9c0.8,0,2.2-0.7,4.2-2.1c-0.3-0.9-0.5-1.8-0.5-2.6c0-1.2,0.3-2.5,0.8-3.7
		C186.4,64.4,187.2,63,188.2,61.3z"/>
	<path class="st1" d="M207.9,69v2.1c-1.9,2.4-3.6,4.2-5.2,5.5c-1.6,1.2-3,1.8-4.2,1.8c-1.6,0-2.8-0.8-3.5-2.5
		c-0.8-1.7-1.2-3.5-1.2-5.5c0-0.8,0.1-1.5,0.3-2.1c0.2-0.7,0.3-1.3,0.5-1.7c0.2-0.5,0.6-1.1,1.2-2.1c2.7-4.3,5.2-6.4,7.6-6.4
		c1.2,0,1.8,0.5,1.8,1.3c0,0.6-0.4,1.6-1.1,2.9s-1.4,2.3-2.1,2.8c-1.7,1.6-2.8,2.8-3.3,3.4s-0.8,1.3-0.8,2.2c0,0.7,0.3,1.3,0.8,1.7
		c0.5,0.5,1.2,0.7,2,0.7c0.9,0,1.9-0.3,3-1C204.8,71.5,206.2,70.5,207.9,69z M206,56c-0.5,0-0.9-0.2-1.4-0.5
		c-0.4-0.4-0.7-0.8-0.7-1.4c0-0.8,0.4-1.8,1.2-2.9c0.8-1,1.6-1.6,2.5-1.6c0.6,0,1,0.2,1.5,0.5c0.4,0.4,0.6,0.9,0.6,1.6
		c0,0.8-0.4,1.8-1.2,2.8C207.7,55.5,206.9,56,206,56z"/>
	<path class="st1" d="M207.6,69.8v-0.7c5-5.2,8.4-8.9,10.3-11c0.4-2.4,1.5-3.6,3.1-3.6c0.4,0,0.8,0.1,1.3,0.3l0.2,0.5
		c-0.1,0.3-0.1,0.5-0.1,1c0,0.4,0.1,1,0.4,2.1c0.3,1,0.5,1.8,0.7,2.5s0.3,1.4,0.3,2.3c0,1.3-0.3,2.5-0.9,3.7
		c-0.6,1.2-1.4,2.3-2.5,3.4c-1.1,1-2.5,2.2-4.2,3.3c0.7,0.1,1.3,0.2,1.6,0.2c0.8,0,1.6-0.2,2.6-0.6c0.9-0.4,1.8-0.9,2.8-1.6
		s2.1-1.5,3.4-2.6v1.9c-2.5,2.4-4.7,4.2-6.6,5.5s-3.7,1.9-5,1.9c-1.8,0-3.5-0.8-5-2.3c-0.9-0.9-1.5-1.8-1.7-2.7
		C207.7,72.4,207.6,71.2,207.6,69.8z M218.4,65.4l-0.5-4.2c-1.2,1.3-3.8,3.9-7.7,7.8c1.2,0.3,1.9,0.6,2.4,1c0.4,0.4,1,1.3,1.8,2.5
		c1.3-0.5,2.3-1.3,3-2.2c0.7-0.9,1-2.2,1-3.8c0-0.2,0-0.4,0-0.5C218.4,65.7,218.4,65.5,218.4,65.4z"/>
	<path class="st1" d="M229.6,63.8c2.9-2.7,5.8-4.7,8.6-6s4.9-1.9,6.4-1.9c0.4,0,0.8,0.2,1.1,0.5s0.6,0.7,0.8,1.2s0.3,0.8,0.3,1
		c0,0.3-0.1,0.6-0.4,0.8c-0.3,0.2-0.8,0.4-1.4,0.6c0.1,0.3,0.3,0.7,0.5,1.2s0.4,0.9,0.5,1.2s0.2,0.5,0.2,0.8c0,0.5-0.5,1.3-1.4,2.6
		c-0.9,1.3-1.6,2.2-2,2.8c-0.4,0.6-0.5,1.3-0.5,2.2c0,1.4,0.7,2.1,2,2.1s3.5-1.3,6.3-3.8v1.8c-4.9,5.4-8.4,8.1-10.5,8.1
		c-0.8,0-1.3-0.3-1.6-0.8S238,77,238,76c0-1.5,0.5-3.7,1.6-6.6c-2.8,3.1-4.9,5.4-6.3,6.7c-1.4,1.3-2.5,2-3.4,2c-0.4,0-1-0.4-1.6-1.1
		s-1.2-1.7-1.7-2.9c-0.5-1.2-0.8-2.4-0.8-3.7c0-0.9,0.1-1.7,0.3-2.3c0.2-0.6,0.5-1.2,1-1.9C227.7,65.7,228.5,64.9,229.6,63.8z
		 M243.5,60.6c-5,2.3-8.6,4.2-10.7,5.8c-2.1,1.6-3.2,3.3-3.2,5c0,0.6,0.1,1.1,0.3,1.5s0.5,0.6,0.9,0.6c0.2,0,0.6-0.1,1.1-0.4
		c2-1.2,3.9-2.8,5.6-4.7C239.1,66.5,241.1,63.9,243.5,60.6z"/>
</g>
<g>
	<path class="st1" d="M11.5,108.7c0.1,0,0.4,0.1,0.5,0.1c0.1,0,0.3,0,0.4,0c0.3,0,0.5-0.1,0.6-0.3c0.1-0.1,0.1-0.5,0.1-1v-0.3
		l1.1,0.3v4.1l-1.1-0.3v-0.1c0-0.4-0.1-0.6-0.3-0.9c-0.1-0.3-0.4-0.4-0.8-0.4l-7.6-1.9c-0.1,0-0.3,0-0.4-0.1c-0.1,0-0.3,0-0.4,0
		c-0.3,0-0.5,0.1-0.5,0.4c-0.1,0.3-0.1,0.6-0.1,1.1v0.1l-1.1-0.3v-3.8l9.1-3.3l-6.4-1.5c-0.3,0-0.4-0.1-0.5-0.1c-0.1,0-0.3,0-0.3,0
		c-0.3,0-0.5,0.1-0.6,0.3c-0.1,0.3-0.1,0.5-0.1,1v0.1l-1.1-0.3v-4.1l1.1,0.3V98c0,0.4,0.1,0.6,0.3,0.9c0.1,0.3,0.4,0.4,0.8,0.4
		l10.3,2.5v1.1l-10.3,3.8L11.5,108.7z"/>
	<path class="st1" d="M9.7,86.4c1.5,0.4,2.8,1,3.4,1.8c0.8,0.9,1.1,1.9,1.1,3.3c0,1.3-0.3,2.3-0.9,3.1c-0.6,0.8-1.4,1.1-2.5,1.1
		c-0.3,0-0.6,0-1.1-0.1s-0.9-0.3-1.5-0.4l-4-1c-0.1,0-0.3-0.1-0.5-0.1c-0.1,0-0.3,0-0.4,0c-0.3,0-0.5,0.1-0.5,0.4
		c-0.1,0.3-0.1,0.6-0.1,1.1l0,0l-1.1-0.3v-5.6L2.7,90v0.4c0,0.5,0.1,0.9,0.3,1.1c0.1,0.3,0.4,0.4,0.8,0.5l5.1,1.4
		c0.5,0.1,0.9,0.3,1.1,0.3c0.4,0,0.6,0.1,0.9,0.1c0.8,0,1.3-0.3,1.7-0.6S13,92,13,91.3c0-0.9-0.3-1.7-0.9-2.2
		c-0.6-0.6-1.5-1-2.8-1.3l-5.1-1.3l0,0c-0.4-0.1-0.6-0.1-0.8-0.1c-0.3,0-0.5,0.1-0.6,0.3c-0.1,0.3-0.1,0.5-0.1,1V88l-1.1-0.3v-4.3
		l1.1,0.3v0.1c0,0.4,0.1,0.6,0.3,0.9C3.1,84.9,3.3,85,3.7,85L9.7,86.4z"/>
	<path class="st1" d="M14,83.1l-1.1-0.3v-0.1c0-0.4-0.1-0.6-0.3-0.9c-0.1-0.3-0.4-0.4-0.8-0.4l-7.6-1.9c-0.1,0-0.3,0-0.4-0.1
		c-0.1,0-0.3,0-0.4,0c-0.3,0-0.5,0.1-0.5,0.4c-0.1,0.3-0.1,0.6-0.1,1.1v0.1l-1.1-0.3l-0.1-9.9l4.1,0.5v1.1c-0.1,0-0.3,0-0.5,0
		c-0.4,0-0.5,0-0.6,0c-0.6,0-1.1,0.1-1.4,0.4c-0.3,0.3-0.4,0.8-0.4,1.3v1.4c0,0.8,0.1,1.1,0.3,1.4c0.1,0.3,0.4,0.4,0.8,0.5l3.2,0.8
		v-0.8c0-0.8-0.1-1.1-0.4-1.5c-0.3-0.3-0.8-0.5-1.4-0.6v-1.1l5.4,1.3v1.1c-0.3,0-0.6-0.1-0.9-0.1s-0.5,0-0.6,0
		c-0.4,0-0.6,0.1-0.8,0.3s-0.3,0.5-0.3,1v0.8l3.3,0.9c0.3,0,0.4,0.1,0.5,0.1c0.1,0,0.3,0,0.4,0c0.3,0,0.5-0.1,0.6-0.3
		c0.1-0.3,0.1-0.6,0.1-1.3v-1c0-1.1-0.3-2-0.6-2.5c-0.4-0.5-1.3-1-2.4-1.3v-1.3l4.2,1.4L14,83.1z"/>
	<path class="st1" d="M4.1,60.5c-0.1,0-0.3-0.1-0.4-0.1s-0.3,0-0.4,0c-0.3,0-0.5,0.1-0.6,0.4c-0.1,0.3-0.1,0.6-0.1,1.3l-1.1-0.3
		v-4.6l1,0.1v0.1c0,0.4,0.1,0.8,0.4,1c0.3,0.3,0.6,0.5,1.3,0.9L14.2,64v1.8l-10.1,2c-0.6,0.1-1,0.3-1.3,0.5c-0.3,0.3-0.4,0.5-0.4,1
		v0.3l-1.1-0.3v-5l1.1,0.3v0.1c0,0.5,0.1,0.9,0.3,1.1c0.1,0.1,0.4,0.3,0.6,0.3c0.1,0,0.4,0,0.8-0.1h0.1l7.9-1.5L4.1,60.5z"/>
	<path class="st1" d="M11,48.2c0.6-0.1,1.1-0.3,1.3-0.5c0.3-0.3,0.4-0.8,0.4-1.3l1.1,0.3V52l-1.1-0.3c0-0.6-0.1-1.1-0.3-1.3
		c-0.1-0.3-0.4-0.4-0.8-0.4c-0.1,0-0.3,0-0.4,0c-0.1,0-0.3,0-0.5,0.1l-1.3,0.3v4.7l1.8,0.9c0.3-0.1,0.4,0,0.5,0s0.3,0.1,0.4,0.1
		c0.3,0,0.4-0.1,0.5-0.4s0.1-0.6,0.1-1.3l1.1,0.3v4.6l-1.1-0.3c-0.1-0.4-0.3-0.6-0.4-0.9c-0.3-0.3-0.5-0.5-1.1-0.9l-9.9-5.6v-2
		L11,48.2z M8.3,54.3v-3.8L3,51.4L8.3,54.3z"/>
</g>
<g>
	<rect x="18.1" y="31.1" class="st2" width="76.9" height="89.6"/>
	<rect x="16.9" y="30.3" class="st3" width="78.5" height="91.3"/>
	<rect x="19.6" y="32.6" class="st0" width="74.3" height="3.3"/>
	<polyline class="st0" points="19.6,41.4 19.6,38.5 93.8,38.5 93.8,41.4 90.4,41.4 90.3,38.9 65.2,39 65.2,41.6 53.4,41.6 53.4,39 
		22.3,39 22.3,41.6 19.4,41.6 	"/>
	<path class="st0" d="M19.7,41.9v3.3h31.7l1.6-0.7h12.8h0.9h0.1c1.3,0.5,2.9,0.8,4.5,0.5l1.3,0.2l-7.5-2.3v-0.3h25.2v2.6H94v-3.3
		H19.7z"/>
	<polygon class="st0" points="19.7,45.9 19.7,49.1 43.9,49.1 47.2,47.2 49.6,46.4 53.4,46.4 53.4,49.1 65.2,49.1 65.2,46.5 
		71.7,46.4 76,48.5 77.1,49.2 78.9,49.1 75,46.5 90.4,46.5 90.4,49.1 94,49.1 94,45.9 	"/>
	<polygon class="st0" points="19.7,49.8 19.7,53.1 39.4,53.1 42.3,50.1 53.4,50.4 53.4,53.1 65.2,53.1 65.2,50.4 78.3,50.4 81.6,53 
		83,52.9 80.6,50.4 90.4,50.4 90.4,53.1 94,53.1 94,49.8 	"/>
	<polygon class="st0" points="19.7,53.7 19.7,56.7 36.4,56.7 38.4,54 53.4,54 53.4,56.7 65.2,56.7 65.2,54 82.5,54 84.3,56.4 
		85.8,56.7 84.2,54 90.4,54 90.4,56.7 94,56.7 94,53.7 	"/>
	<polygon class="st0" points="19.7,57.3 19.7,60.3 33.9,60.2 35.4,57.6 53.4,57.6 53.4,60.3 65.2,60.3 65.3,57.8 75.3,57.6 
		75.3,60.3 88.1,60.3 86.8,57.6 90.4,57.6 90.4,60.3 94,60.3 94,57.3 	"/>
	<polygon class="st0" points="19.7,60.9 19.7,63.2 32.5,63.2 33.5,61.2 53.4,61.2 53.4,63.2 65.2,63.2 65.2,61.2 75.3,61.2 
		75.3,63.2 89.1,63.2 88.6,61.3 90.4,61.2 90.4,63.2 94,63.2 94,60.9 	"/>
	<polygon class="st0" points="19.7,63.9 19.7,66.5 31.5,66.5 32.2,64.2 53.4,64.2 53.4,66.5 65.2,66.5 65.2,64.2 75.3,64.2 
		75.3,66.5 94,66.5 94,63.9 	"/>
	<polygon class="st0" points="19.7,66.8 19.7,70.1 30.8,70.1 31.2,67.4 53.4,67.4 53.4,70.1 65.3,70.2 65.2,67.8 75,67.8 75,70.1 
		94,70.1 94,66.8 	"/>
	<polygon class="st0" points="19.7,70.7 19.7,73.7 30.5,73.7 30.5,71.4 53.4,71.2 53.4,73.7 65.2,73.7 65.3,71.3 75.2,71.3 
		75.3,73.7 93.9,73.5 94,70.7 	"/>
	<polygon class="st0" points="19.7,76.9 19.7,74 94,74 94,76.9 90.1,76.9 90.1,75 65.2,75 65.2,76.9 53.4,76.9 53.4,75 30.5,75 
		30.5,76.9 	"/>
	<polygon class="st0" points="19.7,77.6 19.7,80.2 30.8,80.2 30.5,78.2 53.4,78.2 53.4,80.2 65.2,80.2 65.2,78.2 90.1,78.2 
		90.1,80.2 94,80.2 94,77.6 	"/>
	<polygon class="st0" points="19.7,80.5 19.7,83.2 31.2,83.2 30.8,81.2 53.4,81.2 53.4,83.2 65.2,83.2 65.2,81.2 89.7,81.2 
		89.7,82.2 75.3,82.2 75.3,83.2 94,83.2 94,80.5 	"/>
	<polygon class="st0" points="19.7,83.8 19.7,85.8 32.2,85.8 31.8,84.5 53.4,84.5 53.4,85.8 65.2,85.8 65.2,84.5 75.3,84.5 
		75.3,85.8 89.4,85.8 90.4,84.5 90.4,85.8 94,85.8 94,83.8 	"/>
	<polygon class="st0" points="19.7,86.4 19.7,88.4 33.2,88.4 32.5,86.9 53.4,87.1 53.4,88.4 65.2,88.4 65.2,87.1 75.3,87.1 
		75.3,88.4 88.7,88.4 89.4,87.1 90.4,87.1 90.4,88.4 94,88.4 94,86.4 	"/>
	<polygon class="st0" points="19.7,89 19.7,91.7 34.8,91.7 33.8,89.7 53.4,89.7 53.4,91.7 65.2,91.7 65.2,89.7 75.3,89.7 75.4,91.7 
		87,91.7 88.1,89.7 90.4,89.7 90.4,91.7 94,91.7 94,89 	"/>
	<polygon class="st0" points="19.7,92.3 19.7,94.9 37.1,94.9 35.8,93 53.4,93 53.4,94.9 65.2,94.9 65.2,93 75.3,93 75.3,94.9 
		85.1,94.9 86.5,93 90.4,93 90.4,94.9 94,94.9 94,92.3 	"/>
	<polygon class="st0" points="19.7,95.3 19.7,97.5 39.7,97.5 38.4,95.9 53.4,95.9 53.4,97.5 65.2,97.5 65.2,95.9 75.3,95.9 
		75.3,97.5 83,97.6 84.2,95.9 90.4,95.9 90.4,97.5 94,97.5 94,95.3 	"/>
	<polygon class="st0" points="19.7,98.2 19.7,100.5 43,100.5 41,98.5 53.4,98.5 53.4,100.5 65.2,100.5 65.2,98.5 75.3,98.5 
		75.3,100.5 79.6,100.6 81.9,98.5 90.4,98.5 90.4,100.5 94,100.5 94,98.2 	"/>
	<polygon class="st0" points="19.7,101.1 19.7,103.1 47.5,103.1 45.2,101.8 53.4,101.8 53.4,103.1 65.2,103.1 65.2,101.8 75,101.8 
		75.3,102.1 68.1,102.1 68.1,103.1 76.3,103.1 78,101.8 90.4,101.8 90.4,103.1 94,103.1 94,101.1 	"/>
	<polygon class="st0" points="19.7,103.8 19.7,106.7 67.6,106.6 74.5,104.3 90.4,104.1 90.4,106.7 94,106.7 94,103.8 	"/>
	<polygon class="st0" points="19.7,107 19.7,109.3 22.3,109.3 22.3,107.7 53.4,107.7 53.4,109.3 65.2,109.3 65.2,107.7 90.4,107.7 
		90.4,109.3 94,109.3 94,107 	"/>
	<polygon class="st0" points="19.7,109.6 19.7,112.6 22.3,112.6 22.3,110.3 53.4,110.3 53.4,112.6 65.2,112.6 65.3,110.2 
		90.4,110.3 90.4,112.6 94,112.6 94,109.6 	"/>
	<polygon class="st0" points="19.7,113.2 19.7,115.9 22.3,115.9 22.3,113.9 53.4,113.9 53.4,115.9 65.2,115.9 65.2,113.9 
		90.4,113.9 90.4,115.9 94,115.9 94,113.2 	"/>
	<polygon class="st0" points="19.7,116.5 19.8,119.9 94,119.8 94,116.5 	"/>
	<polygon class="st4" points="19.6,67 19.4,70.1 30.8,70.1 31.4,67.6 53.3,67.6 53.3,70.2 65.4,70.3 65.5,68.1 74.7,68.1 74.7,70.1 
		94.1,70.3 94,70.4 19.4,70.5 19.5,73.6 	"/>
</g>
</svg>
